HIERARCHY
ROOT Hips
{
	OFFSET 0.000000 71.427986 0.000000
	CHANNELS 6 Xposition Yposition Zposition Xrotation Yrotation Zrotation
	JOINT Pelvis
	{
		OFFSET 0.000000 0.000000 0.000000
		CHANNELS 3 Xrotation Yrotation Zrotation
		JOINT LeftUpLeg
		{
			OFFSET 6.797100 -2.508499 -1.318700
			CHANNELS 3 Xrotation Yrotation Zrotation
			JOINT LeftLeg
			{
				OFFSET 0.069008 -29.241863 0.690200
				CHANNELS 3 Xrotation Yrotation Zrotation
				JOINT LeftFoot
				{
					OFFSET -0.069008 -29.568123 -0.266800
					CHANNELS 3 Xrotation Yrotation Zrotation
					JOINT LeftToeBase
					{
						OFFSET 3.145500 -8.631000 16.059900
						CHANNELS 3 Xrotation Yrotation Zrotation
						End Site
						{
							OFFSET 0.000000 18.501587 0.000000
						}
					}
				}
			}
			JOINT Left_ShortSleeve
			{
				OFFSET 0.265923 -10.480953 1.153800
				CHANNELS 3 Xrotation Yrotation Zrotation
				End Site
				{
					OFFSET 1.725763 19.823879 0.000000
				}
			}
		}
		JOINT RightUpLeg
		{
			OFFSET -6.797100 -2.508499 -1.318700
			CHANNELS 3 Xrotation Yrotation Zrotation
			JOINT RightLeg
			{
				OFFSET -0.082453 -29.241932 0.688000
				CHANNELS 3 Xrotation Yrotation Zrotation
				JOINT RightFoot
				{
					OFFSET 0.082453 -29.568058 -0.264600
					CHANNELS 3 Xrotation Yrotation Zrotation
					JOINT RightToeBase
					{
						OFFSET -3.115300 -8.682800 16.113400
						CHANNELS 3 Xrotation Yrotation Zrotation
						End Site
						{
							OFFSET 0.000000 18.567114 0.000000
						}
					}
				}
			}
			JOINT Right_ShortSleeve
			{
				OFFSET -0.265923 -10.480953 1.153800
				CHANNELS 3 Xrotation Yrotation Zrotation
				End Site
				{
					OFFSET -1.725766 19.823910 0.000000
				}
			}
		}
	}
	JOINT Spine
	{
		OFFSET 0.000000 13.368103 0.470500
		CHANNELS 3 Xrotation Yrotation Zrotation
		JOINT Spine1
		{
			OFFSET 0.147000 13.837402 0.538800
			CHANNELS 3 Xrotation Yrotation Zrotation
			JOINT Spine2
			{
				OFFSET 0.168000 16.242897 -1.435500
				CHANNELS 3 Xrotation Yrotation Zrotation
				JOINT Neck
				{
					OFFSET 0.217200 18.631500 -1.679100
					CHANNELS 3 Xrotation Yrotation Zrotation
					JOINT Head
					{
						OFFSET 0.000000 6.599396 1.385900
						CHANNELS 3 Xrotation Yrotation Zrotation
						JOINT Hat
						{
							OFFSET -0.532200 27.220596 -10.096100
							CHANNELS 3 Xrotation Yrotation Zrotation
							End Site
							{
								OFFSET 0.000000 22.029861 0.000000
							}
						}
						JOINT HairD
						{
							OFFSET -10.777400 17.437393 -1.325900
							CHANNELS 3 Xrotation Yrotation Zrotation
							JOINT HairD1
							{
								OFFSET -3.290299 -11.051193 1.062200
								CHANNELS 3 Xrotation Yrotation Zrotation
								End Site
								{
									OFFSET 0.000000 11.579437 0.000000
								}
							}
						}
						JOINT HairB
						{
							OFFSET -10.777400 17.437393 1.467900
							CHANNELS 3 Xrotation Yrotation Zrotation
							JOINT HairB1
							{
								OFFSET -1.561200 -12.956299 3.590200
								CHANNELS 3 Xrotation Yrotation Zrotation
								End Site
								{
									OFFSET 0.000000 13.534866 0.000000
								}
							}
						}
						JOINT HairA
						{
							OFFSET 9.713100 17.437393 1.467900
							CHANNELS 3 Xrotation Yrotation Zrotation
							JOINT HairA1
							{
								OFFSET 1.561200 -12.956299 3.590200
								CHANNELS 3 Xrotation Yrotation Zrotation
								End Site
								{
									OFFSET 0.000000 13.534866 0.000000
								}
							}
						}
						JOINT HairC
						{
							OFFSET 9.713100 17.437393 -1.325900
							CHANNELS 3 Xrotation Yrotation Zrotation
							JOINT HairC1
							{
								OFFSET 3.290300 -11.051193 1.062200
								CHANNELS 3 Xrotation Yrotation Zrotation
								End Site
								{
									OFFSET 0.000000 11.579437 0.000000
								}
							}
						}
					}
				}
				JOINT LeftShoulder
				{
					OFFSET 5.101800 15.108002 -2.763700
					CHANNELS 3 Xrotation Yrotation Zrotation
					JOINT LeftArm
					{
						OFFSET 9.825497 2.506317 -1.597400
						CHANNELS 3 Xrotation Yrotation Zrotation
						JOINT LeftForeArm
						{
							OFFSET 21.966244 0.000000 0.000000
							CHANNELS 3 Xrotation Yrotation Zrotation
							JOINT LeftHand
							{
								OFFSET 33.879036 0.000000 0.000000
								CHANNELS 3 Xrotation Yrotation Zrotation
								JOINT LeftHandThumb1
								{
									OFFSET 6.715286 -2.359680 3.363841
									CHANNELS 3 Xrotation Yrotation Zrotation
									JOINT LeftHandThumb2
									{
										OFFSET 2.507072 -1.447464 1.447461
										CHANNELS 3 Xrotation Yrotation Zrotation
										JOINT LeftHandThumb3
										{
											OFFSET 2.898338 -1.673355 1.673357
											CHANNELS 3 Xrotation Yrotation Zrotation
											End Site
											{
												OFFSET -0.295959 3.727692 -0.131651
											}
										}
									}
								}
								JOINT LeftHandIndex1
								{
									OFFSET 14.190811 -0.254547 3.840278
									CHANNELS 3 Xrotation Yrotation Zrotation
									JOINT LeftHandIndex2
									{
										OFFSET 3.551727 0.000000 -0.000000
										CHANNELS 3 Xrotation Yrotation Zrotation
										JOINT LeftHandIndex3
										{
											OFFSET 2.894196 0.000000 0.000000
											CHANNELS 3 Xrotation Yrotation Zrotation
											End Site
											{
												OFFSET -1.000603 2.690872 0.366626
											}
										}
									}
								}
								JOINT LeftHandMiddle1
								{
									OFFSET 13.776489 0.000000 0.000000
									CHANNELS 3 Xrotation Yrotation Zrotation
									JOINT LeftHandMiddle2
									{
										OFFSET 3.438232 0.000000 0.000000
										CHANNELS 3 Xrotation Yrotation Zrotation
										JOINT LeftHandMiddle3
										{
											OFFSET 3.691551 0.000000 0.000000
											CHANNELS 3 Xrotation Yrotation Zrotation
											End Site
											{
												OFFSET -1.082298 3.499527 0.457670
											}
										}
									}
								}
								JOINT LeftHandRing1
								{
									OFFSET 13.966164 -0.268127 -3.067488
									CHANNELS 3 Xrotation Yrotation Zrotation
									JOINT LeftHandRing2
									{
										OFFSET 3.162567 0.000000 0.000000
										CHANNELS 3 Xrotation Yrotation Zrotation
										JOINT LeftHandRing3
										{
											OFFSET 3.324348 0.000000 0.000000
											CHANNELS 3 Xrotation Yrotation Zrotation
											End Site
											{
												OFFSET -0.861900 3.184998 0.405154
											}
										}
									}
								}
								JOINT LeftHandPinky1
								{
									OFFSET 13.131393 -0.168503 -5.746925
									CHANNELS 3 Xrotation Yrotation Zrotation
									JOINT LeftHandPinky2
									{
										OFFSET 2.849182 0.000000 0.000000
										CHANNELS 3 Xrotation Yrotation Zrotation
										JOINT LeftHandPinky3
										{
											OFFSET 2.805038 0.000000 0.000000
											CHANNELS 3 Xrotation Yrotation Zrotation
											End Site
											{
												OFFSET -0.882500 2.642609 0.325652
											}
										}
									}
								}
							}
							JOINT Left_Sleeve
							{
								OFFSET 6.592125 -0.646545 0.805568
								CHANNELS 3 Xrotation Yrotation Zrotation
								End Site
								{
									OFFSET -0.000179 20.275787 -0.000000
								}
							}
						}
					}
				}
				JOINT RightShoulder
				{
					OFFSET -5.731700 15.108002 -2.763700
					CHANNELS 3 Xrotation Yrotation Zrotation
					JOINT RightArm
					{
						OFFSET -9.825497 2.506317 -1.597400
						CHANNELS 3 Xrotation Yrotation Zrotation
						JOINT RightForeArm
						{
							OFFSET -21.966242 0.000000 0.000000
							CHANNELS 3 Xrotation Yrotation Zrotation
							JOINT RightHand
							{
								OFFSET -33.879032 0.000000 0.000000
								CHANNELS 3 Xrotation Yrotation Zrotation
								JOINT RightHandThumb1
								{
									OFFSET -6.715286 -2.359680 3.363841
									CHANNELS 3 Xrotation Yrotation Zrotation
									JOINT RightHandThumb2
									{
										OFFSET -2.507072 -1.447464 1.447461
										CHANNELS 3 Xrotation Yrotation Zrotation
										JOINT RightHandThumb3
										{
											OFFSET -2.898338 -1.673355 1.673357
											CHANNELS 3 Xrotation Yrotation Zrotation
											End Site
											{
												OFFSET 0.295959 3.727692 -0.131651
											}
										}
									}
								}
								JOINT RightHandIndex1
								{
									OFFSET -14.190811 -0.254547 3.840278
									CHANNELS 3 Xrotation Yrotation Zrotation
									JOINT RightHandIndex2
									{
										OFFSET -3.551727 0.000000 -0.000000
										CHANNELS 3 Xrotation Yrotation Zrotation
										JOINT RightHandIndex3
										{
											OFFSET -2.894196 0.000000 0.000000
											CHANNELS 3 Xrotation Yrotation Zrotation
											End Site
											{
												OFFSET 1.000603 2.690872 0.366626
											}
										}
									}
								}
								JOINT RightHandMiddle1
								{
									OFFSET -13.776489 0.000000 0.000000
									CHANNELS 3 Xrotation Yrotation Zrotation
									JOINT RightHandMiddle2
									{
										OFFSET -3.438232 0.000000 0.000000
										CHANNELS 3 Xrotation Yrotation Zrotation
										JOINT RightHandMiddle3
										{
											OFFSET -3.691551 0.000000 0.000000
											CHANNELS 3 Xrotation Yrotation Zrotation
											End Site
											{
												OFFSET 1.082298 3.499527 0.457670
											}
										}
									}
								}
								JOINT RightHandRing1
								{
									OFFSET -13.966164 -0.268127 -3.067488
									CHANNELS 3 Xrotation Yrotation Zrotation
									JOINT RightHandRing2
									{
										OFFSET -3.162567 0.000000 0.000000
										CHANNELS 3 Xrotation Yrotation Zrotation
										JOINT RightHandRing3
										{
											OFFSET -3.324348 0.000000 0.000000
											CHANNELS 3 Xrotation Yrotation Zrotation
											End Site
											{
												OFFSET 0.861900 3.184998 0.405154
											}
										}
									}
								}
								JOINT RightHandPinky1
								{
									OFFSET -13.131393 -0.168503 -5.746925
									CHANNELS 3 Xrotation Yrotation Zrotation
									JOINT RightHandPinky2
									{
										OFFSET -2.849182 0.000000 0.000000
										CHANNELS 3 Xrotation Yrotation Zrotation
										JOINT RightHandPinky3
										{
											OFFSET -2.805038 0.000000 0.000000
											CHANNELS 3 Xrotation Yrotation Zrotation
											End Site
											{
												OFFSET 0.882500 2.642609 0.325652
											}
										}
									}
								}
							}
							JOINT Right_Sleeve
							{
								OFFSET -6.592125 -0.646545 0.805568
								CHANNELS 3 Xrotation Yrotation Zrotation
								End Site
								{
									OFFSET 0.000179 20.275787 -0.000000
								}
							}
						}
					}
				}
				JOINT Bind_Right_JacketString
				{
					OFFSET -3.534800 11.969597 7.200700
					CHANNELS 3 Xrotation Yrotation Zrotation
					JOINT Bind_Right_JacketString1
					{
						OFFSET -0.319900 -6.102600 2.794100
						CHANNELS 3 Xrotation Yrotation Zrotation
						End Site
						{
							OFFSET 0.000000 6.719452 0.000000
						}
					}
				}
				JOINT Bind_Left_JacketString
				{
					OFFSET 2.904800 11.969597 7.200700
					CHANNELS 3 Xrotation Yrotation Zrotation
					JOINT Bind_Left_JacketString1
					{
						OFFSET 0.364800 -5.904503 3.186800
						CHANNELS 3 Xrotation Yrotation Zrotation
						End Site
						{
							OFFSET 0.000000 6.719513 0.000000
						}
					}
				}
				JOINT HairE
				{
					OFFSET 5.915200 17.612701 -11.592200
					CHANNELS 3 Xrotation Yrotation Zrotation
					JOINT HairE1
					{
						OFFSET 0.289200 -7.171898 -1.284500
						CHANNELS 3 Xrotation Yrotation Zrotation
						End Site
						{
							OFFSET 0.000000 7.291756 0.000000
						}
					}
				}
				JOINT HairF
				{
					OFFSET -0.864800 17.612701 -11.592200
					CHANNELS 3 Xrotation Yrotation Zrotation
					JOINT HairF1
					{
						OFFSET 0.000000 -14.087097 -2.127501
						CHANNELS 3 Xrotation Yrotation Zrotation
						End Site
						{
							OFFSET 0.000000 14.246841 0.000000
						}
					}
				}
				JOINT HairG
				{
					OFFSET -8.087700 17.612701 -11.592200
					CHANNELS 3 Xrotation Yrotation Zrotation
					JOINT HairG1
					{
						OFFSET -0.293600 -6.081398 -0.910100
						CHANNELS 3 Xrotation Yrotation Zrotation
						End Site
						{
							OFFSET 0.000000 6.156120 0.000000
						}
					}
				}
			}
		}
	}
	JOINT Pouch
	{
		OFFSET 0.000000 4.394501 10.847300
		CHANNELS 3 Xrotation Yrotation Zrotation
		End Site
		{
			OFFSET 0.000000 21.880577 0.000000
		}
	}
	JOINT Bag
	{
		OFFSET -13.229000 4.813004 -0.593300
		CHANNELS 3 Xrotation Yrotation Zrotation
		End Site
		{
			OFFSET 0.000000 21.880577 0.000000
		}
	}
	JOINT OccupyGuyFacialAnim_Joint
	{
		OFFSET 1.000000 -70.206398 -1.655000
		CHANNELS 3 Xrotation Yrotation Zrotation
		End Site
		{
			OFFSET 0.000000 21.880577 0.000000
		}
	}
}
MOTION
Frames: 4
Frame Time: 0.016667
-0.863839 63.626129 0.767601 3.013711 -58.244582 6.565746 0.000000 -0.000000 -0.000000 -32.631680 11.146480 23.555282 43.785795 -8.044287 -9.928418 -13.051390 -2.685177 -7.269679 0.000000 0.000002 0.000000 -0.000000 0.000003 0.000002 -30.698989 -9.740617 -24.750312 48.834166 2.532614 -7.653516 -22.404376 2.481536 19.801967 -0.000000 -0.000002 -0.000000 0.000000 0.000001 -0.000002 11.191575 0.099378 -2.783215 8.434593 0.027698 -5.592317 8.457050 0.027850 -5.591863 -21.555706 25.063290 12.062585 -0.293968 25.465865 -3.208985 0.000000 -0.000000 0.000000 0.000000 -0.000000 0.000000 0.000000 -0.000000 0.000001 0.000000 -0.000000 -0.000001 0.000000 -0.000000 0.000000 0.000000 -0.000000 -0.000001 0.000000 -0.000000 0.000000 0.000000 -0.000000 0.000000 0.000000 -0.000000 0.000000 -6.221663 -11.503844 -4.023813 -23.062117 9.568709 -36.639641 0.046172 -43.169449 -0.011156 22.743722 -5.685680 15.979228 -1.060968 -7.956218 8.492270 2.373409 19.986109 -2.038334 -0.000001 0.000002 0.000000 13.340880 -1.006684 10.682277 -0.163440 0.317209 -31.105624 0.000001 -0.000001 -0.000000 8.500036 -0.329639 -0.915278 0.231508 0.661152 -29.901844 -0.000000 -0.000000 0.000002 6.121118 3.156106 -16.211135 0.046237 0.321031 -30.125468 0.000001 0.000000 -0.000006 -5.637157 7.705230 -13.879850 0.225731 0.277893 -46.588362 -0.000001 -0.000001 -0.000001 -0.000000 0.000000 0.000002 -5.488248 10.658287 2.466536 -41.473793 -26.755639 30.079071 24.955310 111.863110 -23.308304 -8.702505 12.422966 -9.801952 0.262727 10.061716 -10.891937 1.381147 -17.410716 3.018938 -0.000000 0.000000 0.000002 19.443617 11.174430 -13.340171 -0.109203 -0.315767 18.035664 -0.000001 0.000000 -0.000005 4.320478 2.436947 -4.811717 0.344840 -0.463972 26.890299 -0.000001 0.000003 -0.000000 -7.011539 -10.695713 5.718768 0.110920 -0.095447 26.155839 0.000002 0.000000 -0.000000 -19.433548 -20.238194 5.987845 0.209900 -0.086868 36.844629 0.000000 0.000001 0.000001 -0.000001 0.000003 0.000001 -0.000001 -0.000001 -0.000001 -0.000000 -0.000003 0.000001 -0.000001 -0.000001 -0.000001 -0.000001 -0.000001 -0.000001 -0.000001 -0.000001 -0.000001 -0.000000 -0.000003 0.000002 -0.000001 -0.000001 -0.000001 -0.000001 -0.000001 -0.000001 -0.000001 -0.000001 -0.000001 -0.000000 -0.000003 0.000002 0.000000 -0.000000 -0.000000 0.000000 -0.000000 -0.000000 0.000000 -0.000000 -0.000000 
-0.853792 63.619347 0.751560 3.038365 -58.218873 6.547261 -0.000000 -0.000001 -0.000000 -32.707372 11.136395 23.605748 43.808417 -8.099677 -9.913550 -13.034800 -2.680663 -7.265160 0.000000 0.000000 -0.000000 -0.000000 -0.000001 -0.000003 -30.724520 -9.720722 -24.705739 48.881314 2.505825 -7.638405 -22.415649 2.467455 19.844949 -0.000000 -0.000000 -0.000000 0.000002 -0.000002 -0.000000 11.154802 0.116398 -2.738712 8.361923 0.067330 -5.504497 8.384383 0.067502 -5.504040 -20.955326 25.198837 11.976184 -0.203330 25.677147 -3.208820 0.000001 0.000000 0.000000 0.000001 0.000000 0.000000 0.000001 0.000000 0.000001 0.000001 0.000000 -0.000000 0.000001 0.000000 -0.000001 0.000001 0.000000 -0.000000 0.000001 0.000000 -0.000001 0.000001 0.000000 0.000000 0.000001 0.000000 0.000000 -5.897227 -11.434695 -4.094852 -23.105784 9.541861 -36.578163 -0.430878 -43.369092 0.211636 22.768273 -5.683130 16.086405 -0.879748 -7.813321 8.278621 2.373402 19.986110 -2.038332 0.000001 -0.000000 -0.000000 13.334324 -1.036134 10.359194 -0.182385 0.317266 -31.248327 0.000003 -0.000003 -0.000002 8.499503 -0.328323 -1.009016 0.251443 0.631766 -29.985978 0.000000 0.000000 0.000001 6.121508 3.146026 -16.098240 0.080330 0.300945 -30.077175 -0.000000 0.000003 0.000005 -5.734518 7.618924 -13.497795 0.245211 0.256983 -46.515306 0.000000 0.000001 0.000003 0.000002 0.000002 -0.000001 -5.087702 10.716887 2.386533 -41.616715 -26.593121 29.801420 27.048712 111.876197 -25.310967 -8.426426 11.265939 -10.149971 0.161855 10.414138 -10.760825 1.389868 -17.409806 3.034350 -0.000002 -0.000001 0.000000 19.555204 10.955344 -14.215785 -0.109607 -0.315381 17.606197 -0.000001 -0.000001 -0.000002 4.375301 2.490928 -5.767851 0.342237 -0.462205 26.411522 0.000001 -0.000000 -0.000003 -7.223197 -10.390284 4.582370 0.110969 -0.091259 25.535024 0.000002 -0.000001 -0.000003 -19.709047 -19.569334 4.721571 0.207388 -0.083924 36.069283 0.000004 -0.000003 -0.000002 0.000000 0.000000 0.000004 -0.000000 0.000000 -0.000000 0.000001 0.000000 -0.000001 -0.000000 0.000000 0.000001 -0.000000 0.000000 0.000001 -0.000000 0.000000 -0.000000 0.000001 0.000000 -0.000001 -0.000000 0.000000 0.000001 -0.000000 0.000000 0.000001 -0.000000 0.000000 -0.000000 0.000001 0.000000 -0.000001 -0.000000 -0.000001 -0.000000 -0.000000 -0.000001 -0.000000 -0.000000 -0.000001 -0.000000 
-0.840193 63.606209 0.736745 3.075644 -58.203204 6.545205 -0.000000 0.000001 -0.000000 -32.799590 11.118661 23.653252 43.864516 -8.134803 -9.900674 -13.032746 -2.679144 -7.264483 0.000000 0.000000 0.000000 -0.000000 -0.000001 -0.000000 -30.776013 -9.686629 -24.662010 48.955500 2.483588 -7.640424 -22.434316 2.446379 19.902734 0.000000 -0.000002 0.000000 -0.000001 0.000001 -0.000000 11.182501 0.131176 -2.703611 8.418547 0.098055 -5.435015 8.441001 0.098150 -5.434534 -20.687885 25.289870 11.929351 -0.113993 25.894268 -3.222223 0.000000 -0.000000 -0.000000 0.000000 -0.000000 -0.000000 0.000000 -0.000000 0.000000 0.000000 -0.000000 -0.000001 0.000000 0.000000 -0.000001 0.000000 -0.000000 -0.000001 0.000000 0.000000 -0.000001 0.000000 -0.000000 -0.000000 0.000000 -0.000000 -0.000000 -5.908043 -11.406742 -4.124975 -23.202750 9.567586 -36.508369 -0.784474 -43.550085 0.142516 22.848571 -5.652429 16.178181 -0.879641 -7.742594 8.328712 2.373404 19.986112 -2.038337 -0.000002 0.000001 0.000002 13.268573 -0.549112 10.431558 -0.182234 0.317241 -31.198948 -0.000001 -0.000000 -0.000002 8.506220 0.092373 -0.917203 0.251015 0.632012 -29.949710 -0.000001 0.000002 0.000003 6.117625 3.143143 -16.039675 0.080065 0.300783 -30.030101 -0.000002 0.000000 -0.000002 -5.752450 7.603058 -13.427837 0.244820 0.257178 -46.451543 0.000001 -0.000003 0.000001 0.000003 0.000000 -0.000000 -4.944355 10.745124 2.290182 -41.728132 -26.359933 29.303725 31.240196 112.174642 -29.235686 -7.457846 10.204589 -10.911855 0.253651 10.146828 -10.866898 1.389861 -17.409824 3.034319 -0.000000 0.000001 -0.000001 19.555690 10.849985 -14.310302 -0.109770 -0.315219 17.427322 -0.000000 -0.000001 -0.000002 4.395303 2.480614 -5.884555 0.341311 -0.463241 26.238725 -0.000002 -0.000002 0.000002 -7.253354 -10.295829 4.470743 0.110985 -0.090323 25.398062 0.000001 -0.000002 0.000000 -19.678094 -19.367587 4.682576 0.206948 -0.083437 35.949335 0.000000 -0.000000 -0.000003 -0.000000 -0.000001 0.000001 0.000002 -0.000002 0.000001 0.000002 0.000002 0.000000 0.000002 -0.000002 0.000001 0.000002 -0.000002 0.000001 0.000002 -0.000002 0.000001 0.000002 0.000002 0.000000 0.000002 -0.000002 0.000001 0.000002 -0.000002 0.000001 0.000002 -0.000002 0.000001 0.000002 0.000002 0.000000 -0.000000 0.000001 -0.000000 -0.000000 0.000001 -0.000000 -0.000000 0.000001 -0.000000 
-0.824272 63.594543 0.723871 3.118636 -58.196497 6.552153 -0.000000 0.000000 -0.000000 -32.886429 11.101425 23.690866 43.918328 -8.160885 -9.885662 -13.033330 -2.676048 -7.264924 0.000000 -0.000002 0.000000 0.000001 0.000001 -0.000001 -30.829927 -9.643665 -24.622337 49.021941 2.467133 -7.641689 -22.444408 2.421930 19.967368 0.000000 -0.000000 -0.000000 0.000004 0.000000 -0.000002 11.206737 0.145733 -2.670503 8.467448 0.128428 -5.368927 8.489931 0.128549 -5.368453 -20.398457 25.378644 11.886845 -0.024568 26.120520 -3.255902 0.000001 -0.000000 0.000000 0.000001 -0.000000 0.000000 0.000001 -0.000000 0.000001 0.000001 -0.000000 -0.000001 0.000001 -0.000000 0.000000 0.000001 -0.000000 -0.000001 0.000001 -0.000000 0.000000 0.000001 -0.000000 0.000000 0.000001 -0.000000 0.000000 -5.914321 -11.396578 -4.145980 -23.347103 9.645220 -36.446774 -1.115204 -43.763413 0.039109 22.975530 -5.590290 16.230213 -0.833021 -7.696170 8.471582 2.373402 19.986112 -2.038337 0.000002 0.000001 0.000001 13.148561 -0.152171 10.582366 -0.181325 0.317224 -31.121969 0.000000 0.000000 -0.000002 8.510355 0.379053 -0.790061 0.249856 0.632809 -29.887880 -0.000000 0.000000 -0.000001 6.301399 3.763307 -15.938171 0.079953 0.300719 -29.987474 0.000000 0.000002 0.000002 -5.757954 7.590695 -13.381688 0.244380 0.257137 -46.375936 0.000000 -0.000003 0.000001 0.000002 0.000003 -0.000003 -4.707634 10.766305 2.133766 -41.787217 -26.098329 28.599059 29.847988 111.261172 -27.947394 -9.059265 9.227791 -12.053753 0.390476 9.767098 -10.996384 1.388991 -17.406073 3.036278 -0.000001 0.000002 -0.000002 19.537119 10.750091 -14.301125 -0.109901 -0.315073 17.255136 -0.000003 -0.000002 -0.000002 4.410919 2.459030 -5.885778 0.340497 -0.463549 26.084947 0.000002 -0.000001 -0.000001 -7.077089 -10.207435 4.534579 0.110978 -0.089771 25.313719 -0.000000 0.000003 0.000002 -19.588539 -19.216756 4.827900 0.206835 -0.083272 35.913565 -0.000001 0.000000 -0.000003 -0.000002 -0.000002 0.000001 0.000001 -0.000000 -0.000002 -0.000001 0.000000 -0.000000 0.000001 -0.000000 -0.000000 0.000001 -0.000000 -0.000000 0.000001 -0.000000 -0.000002 -0.000001 0.000000 -0.000000 0.000001 -0.000000 -0.000000 0.000001 -0.000000 -0.000000 0.000001 -0.000000 -0.000002 -0.000001 0.000000 -0.000000 -0.000000 0.000000 -0.000000 -0.000000 0.000000 -0.000000 -0.000000 0.000000 -0.000000 
